<svg width="38" height="30" viewBox="0 0 38 30" fill="none" xmlns="http://www.w3.org/2000/svg">
<path fill-rule="evenodd" clip-rule="evenodd" d="M29.6036 2.87606L36.8929 9.96703C38.3309 11.4546 38.2813 11.5042 35.3061 11.5042H35.0582V20.0828H21.025V11.5042H20.777C17.8018 11.4546 17.7026 11.4051 19.2398 9.96703L26.4796 2.87606C28.0168 1.43803 28.1655 1.43803 29.6036 2.87606ZM3.61987 0H14.9257C15.4216 0 15.8679 0.396698 15.8679 0.89257V12.1985C15.8679 12.6943 15.4216 13.091 14.9257 13.091H3.61987C3.12399 13.091 2.7273 12.6943 2.7273 12.1985V0.89257C2.7273 0.396698 3.12399 0 3.61987 0ZM5.90088 8.18189L7.28932 7.98354C7.43808 9.17363 8.23148 9.66951 9.37198 9.66951C10.215 9.66951 11.2563 9.37198 11.2563 8.38024C11.2563 7.48767 10.0662 7.33891 9.42157 7.19014C8.03313 6.79345 6.14881 6.49592 6.14881 4.6612C6.14881 3.22317 7.33891 2.47936 8.62817 2.3306V1.28927H9.96703V2.38019C11.3555 2.57853 12.1489 3.17358 12.3472 4.61161L11.0084 4.80996C10.8596 3.81821 10.1654 3.42152 9.22322 3.42152C8.57859 3.42152 7.48767 3.61987 7.48767 4.46285C7.48767 5.35542 8.77693 5.50418 9.37198 5.70253C10.81 6.04964 12.6943 6.34716 12.6943 8.23148C12.6943 9.76868 11.3555 10.6117 9.96703 10.7604V11.8513H8.62817V10.7604C7.09097 10.5621 6.1984 9.76868 5.90088 8.18189ZM13.7852 18.5456C13.0414 17.9506 11.2563 17.7026 10.3141 17.7026L0 17.6035V25.8845C1.33885 25.8845 8.57859 25.4382 9.07446 26.43C10.5125 29.306 23.901 30.992 30.992 29.3556C33.5209 28.7606 36.6449 24.8928 30.992 25.4382C18.6448 26.5787 15.3224 19.8349 13.7852 18.5456Z" fill="#8BBD43"/>
</svg>
